<?xml version="1.0" encoding="iso-8859-1"?>
<!-- Generator: Adobe Illustrator 18.0.0, SVG Export Plug-In . SVG Version: 6.00 Build 0)  -->
<!DOCTYPE svg PUBLIC "-//W3C//DTD SVG 1.1//EN" "http://www.w3.org/Graphics/SVG/1.1/DTD/svg11.dtd">
<svg version="1.1" id="Capa_1" xmlns="http://www.w3.org/2000/svg" xmlns:xlink="http://www.w3.org/1999/xlink" x="0px" y="0px"
	 viewBox="0 0 265.117 265.117" style="enable-background:new 0 0 265.117 265.117;" xml:space="preserve">
<g>
	<path d="M264.886,86.714c-0.929-7.137-4.583-13.485-10.287-17.875c-11.774-9.061-28.725-6.854-37.792,4.928l-9.029,11.762
		l0.729-6.29c0.872-7.521-1.238-14.932-5.94-20.866c-4.702-5.935-11.433-9.683-18.955-10.555c-7.52-0.868-14.932,1.238-20.866,5.94
		c-0.507,0.401-0.991,0.823-1.466,1.253c-4.481-6.507-11.63-11.128-20.076-12.107c-7.521-0.869-14.931,1.238-20.866,5.94
		c-0.503,0.398-0.984,0.817-1.455,1.244c-0.361-0.523-0.734-1.04-1.132-1.543c-4.702-5.935-11.434-9.683-18.955-10.555
		c-7.52-0.87-14.932,1.238-20.866,5.94c-5.935,4.702-9.683,11.434-10.555,18.955l-1.338,11.543L52.931,26.411
		C51.036,19.467,46.55,13.677,40.3,10.108c-6.25-3.57-13.516-4.491-20.459-2.596C5.508,11.425-2.97,26.269,0.962,40.671
		l37.914,133.577c4.05,14.267,11.623,26.965,22.075,37.177c-0.145,0.561-0.23,1.146-0.23,1.752v38.391c0,3.866,3.134,7,7,7h101.125
		c3.866,0,7-3.134,7-7v-38.391c0-0.023-0.003-0.045-0.003-0.068c3.103-2.753,6.031-5.739,8.75-8.956
		c0.07-0.083,0.138-0.167,0.205-0.254l74.723-97.272C263.91,100.923,265.816,93.851,264.886,86.714z M171.441,64.732
		c2.561-2.028,5.663-3.104,8.881-3.104c0.557,0,1.118,0.032,1.679,0.098c3.807,0.441,7.213,2.338,9.593,5.342
		s3.447,6.753,3.006,10.56v0l-4.391,37.89c-0.441,3.807-2.338,7.213-5.341,9.593c-3.004,2.38-6.755,3.451-10.56,3.006
		c-7.858-0.911-13.51-8.044-12.599-15.902l4.391-37.89C166.541,70.518,168.438,67.112,171.441,64.732z M129.033,59.818
		c2.561-2.028,5.663-3.104,8.881-3.104c0.557,0,1.118,0.032,1.68,0.098c7.857,0.91,13.509,8.044,12.599,15.902l-5.828,50.294
		c-0.441,3.807-2.338,7.213-5.341,9.593c-3.003,2.38-6.75,3.451-10.561,3.006c-3.806-0.441-7.213-2.338-9.593-5.341
		c-2.38-3.003-3.447-6.753-3.006-10.56l5.828-50.295C124.133,65.604,126.03,62.197,129.033,59.818z M75.456,114.791l5.828-50.295
		c0.846-7.299,7.062-12.695,14.24-12.695c0.549,0,1.104,0.031,1.662,0.096c3.806,0.441,7.213,2.338,9.593,5.341
		c2.379,3.003,3.447,6.754,3.006,10.561l-5.828,50.294c-0.911,7.858-8.049,13.511-15.902,12.599
		c-3.806-0.441-7.213-2.338-9.593-5.341S75.015,118.597,75.456,114.791z M161.847,244.567H74.721v-22.235
		c12.335,7.825,26.344,12.154,41.002,12.579c0.851,0.025,1.704,0.037,2.561,0.037c15.507,0,30.484-4.125,43.563-11.721V244.567z
		 M248.422,98.093l-74.625,97.144c-13.871,16.343-34.095,25.711-55.513,25.711c-0.719,0-1.436-0.01-2.153-0.031
		c-29.827-0.865-55.46-21.156-63.788-50.492L14.449,36.916c-0.911-3.336-0.468-6.827,1.247-9.83s4.496-5.158,7.832-6.068
		c3.337-0.912,6.827-0.468,9.829,1.247c3.002,1.715,5.158,4.496,6.068,7.832l21.755,79.69c0.143,0.523,0.346,1.011,0.591,1.469
		l-0.223,1.922c-0.872,7.521,1.238,14.932,5.94,20.866c4.702,5.935,11.434,9.683,18.955,10.555c1.104,0.128,2.198,0.19,3.284,0.19
		c7.22,0,13.944-2.768,19.03-7.384c0.363,0.527,0.738,1.048,1.14,1.554c4.702,5.935,11.434,9.683,18.954,10.554
		c1.11,0.128,2.219,0.192,3.32,0.192c6.357,0,12.488-2.125,17.546-6.132c3.037-2.406,5.497-5.346,7.296-8.649
		c4.222,3.809,9.617,6.395,15.684,7.099c1.11,0.128,2.217,0.192,3.318,0.192c6.357,0,12.489-2.125,17.547-6.132
		c5.935-4.702,9.683-11.434,10.555-18.955l0.524-4.519l23.267-30.311c4.355-5.656,12.499-6.717,18.154-2.365
		c2.74,2.109,4.496,5.159,4.942,8.588C251.45,91.951,250.535,95.348,248.422,98.093z"/>
</g>
<g>
</g>
<g>
</g>
<g>
</g>
<g>
</g>
<g>
</g>
<g>
</g>
<g>
</g>
<g>
</g>
<g>
</g>
<g>
</g>
<g>
</g>
<g>
</g>
<g>
</g>
<g>
</g>
<g>
</g>
</svg>
